# xmcd
#
# Track frame offsets:
#	150
#	17901
#	37083
#	48954
#	65064
#	80224
#	92309
#	107948
#	125573
#	143972
#
# Disc length: 2152 seconds
#
# Revision: 0
# Processed by: cddbd v1.5.1PL0 Copyright (c) Steve Scherf et al.
# Submitted via: dBpowerAMP V4.0
#
DISCID=8f08660a
DTITLE=Derek Duplessie and The Desert Poets - Not Coming Home Today
DYEAR=2001
DGENRE=Country
TTITLE0=Not Coming Home Today
TTITLE1=Back Home To You
TTITLE2=The Highway's My Only Friend
TTITLE3=Conflict
TTITLE4=What Goes Down
TTITLE5=Back's Against The Wall
TTITLE6=Heading Out West
TTITLE7=Fearless Heart
TTITLE8=Runnin' For The Texas Line
TTITLE9=The Highway's Song
EXTD=West Coast Country Americana\n\nProduced by Derek Duplessie and Andrew Machin\nRecorded, mixed, and mastered by Andrew Machin at Bigrock Studio\nGraphic Art by Sheri Salomone\n\nContact Derek Duplessie:\nP.O. Box 164, La Jolla CA 92038-0164\nwww.de
EXTD=rekduplessie.com\n1-800-706-2060\n\n
EXTT0=
EXTT1=
EXTT2=
EXTT3=
EXTT4=
EXTT5=
EXTT6=
EXTT7=
EXTT8=
EXTT9=
PLAYORDER=
